<?xml version="1.0" encoding="UTF-8" standalone="no"?>
<svg
   height="29.863001"
   viewBox="0 0 29.907 29.863001"
   width="29.907"
   version="1.1"
   id="svg16"
   sodipodi:docname="icon.svg"
   inkscape:version="1.2.1 (9c6d41e410, 2022-07-14)"
   xmlns:inkscape="http://www.inkscape.org/namespaces/inkscape"
   xmlns:sodipodi="http://sodipodi.sourceforge.net/DTD/sodipodi-0.dtd"
   xmlns="http://www.w3.org/2000/svg"
   xmlns:svg="http://www.w3.org/2000/svg">
  <defs
     id="defs20" />
  <sodipodi:namedview
     id="namedview18"
     pagecolor="#ffffff"
     bordercolor="#000000"
     borderopacity="0.25"
     inkscape:showpageshadow="2"
     inkscape:pageopacity="0.0"
     inkscape:pagecheckerboard="0"
     inkscape:deskcolor="#d1d1d1"
     showgrid="false"
     inkscape:zoom="6.6540284"
     inkscape:cx="-2.4797009"
     inkscape:cy="4.2831197"
     inkscape:window-width="1920"
     inkscape:window-height="991"
     inkscape:window-x="-9"
     inkscape:window-y="-9"
     inkscape:window-maximized="1"
     inkscape:current-layer="svg16"
     showguides="true">
    <sodipodi:guide
       position="10.743,15.975501"
       orientation="0.70658605,-0.70762713"
       id="guide745"
       inkscape:locked="false" />
    <sodipodi:guide
       position="14.3835,14.108799"
       orientation="0,-1"
       id="guide958"
       inkscape:locked="false" />
  </sodipodi:namedview>
  <path
     d="m 14.953,28.817 c -7.68,0 -13.906,-6.216 -13.906,-13.886 0,-7.669 6.226,-13.886 13.906,-13.886 7.68,0 13.907,6.217 13.907,13.886 0,7.67 -6.226,13.886 -13.907,13.886 M 14.953,0 C 6.695,0 0,6.685 0,14.931 c 0,8.247 6.695,14.932 14.953,14.932 8.26,0 14.954,-6.685 14.954,-14.932 0,-8.246 -6.695,-14.93 -14.954,-14.93"
     fill="#229e6b"
     id="path4" />
  <path
     d="M 22.611,13.924 15.815,13.903 15.841,5.537 A 0.84,0.84 0 0 0 15.006,4.698 0.84,0.84 0 0 0 14.166,5.532 L 14.14,13.898 7.346,13.877 A 1.07,1.07 0 0 0 6.274,14.94 L 6.25,22.53 a 1.07,1.07 0 0 0 1.065,1.07 l 15.266,0.048 a 1.071,1.071 0 0 0 1.072,-1.064 l 0.024,-7.59 a 1.071,1.071 0 0 0 -1.066,-1.07"
     fill="#fbba16"
     id="path6" />
  <g
     id="g967">
    <path
       d="m 25.036,7.24 c 0.273,0.222 0.183,0.325 0.01,0.564 -0.57,0.785 -1.561,1.935 -1.637,2.619 -0.086,0.772 0.155,1.908 -0.724,2.695 -0.364,-0.022 -4.661,-0.014 -4.661,-0.014 0.858,-1.085 1.906,-3.027 3.558,-3.457 1.022,-0.265 1.738,-1.444 2.394,-2.39 0.34,-0.49 0.596,-0.396 1.06,-0.018"
       fill="#a71e59"
       id="path8" />
    <path
       d="m 20.597,9.215 c -0.696,0.428 -1.119,0.899 -1.513,1.38 -0.893,1.093 -1.858,2.505 -1.858,2.505 l -0.444,-0.002 c 0.61,-2.133 -0.365,-3.601 0.585,-4.173 0.638,-0.384 0.93,0.22 1.832,-0.227 1.13,-0.56 1.398,0.517 1.398,0.517 m 5.051,1.946 c 0.15,0.08 0.218,0.269 0.185,0.435 -0.13,0.646 0.816,1.174 0.123,1.662 -0.69,0.484 -0.51,0.8 -0.914,0.8 -0.5,-0.002 -0.245,-0.606 -1.368,-0.936 0.243,-0.428 0.379,-0.601 0.43,-1.88 0.502,-0.265 1.137,-0.294 1.544,-0.08 M 8.082,7.195 C 9.188,6.507 8.994,8.101 9.518,7.79 9.798,7.624 10.065,7.76 10.097,7.972 10.177,8.49 9.51,9.405 9.534,9.975 c 10e-4,0.03 -0.023,0.053 -0.053,0.05 -0.112,-0.014 -0.194,-0.013 -0.6,0.087 -0.36,0.09 -0.794,0.379 -0.794,0.379 C 7.552,10.306 7.059,10.009 6.512,9.708 6.109,9.485 6.009,9.315 6.006,8.988 6.003,8.59 6.318,8.512 6.196,8.251 6.028,7.891 5.859,7.466 6.054,7.118 6.162,6.946 6.384,6.758 6.602,6.768 7.354,6.752 7.459,7.583 8.082,7.195 M 5.171,8.656 c 0.05,0.1 0.073,0.152 0.012,0.262 -0.201,0.366 -0.04,0.76 0.225,1.125 0.438,0.604 1.705,0.955 2.282,1.14 l -0.16,0.498 c -1.305,-0.342 -2.122,-0.233 -3.106,0.004 0,0 -0.55,0.234 -0.892,-0.076 -0.344,-0.312 -0.18,-0.7 0.004,-0.856 0,0 -0.771,-0.481 -0.424,-1.185 0.27,-0.55 0.793,-0.469 0.793,-0.469 0,0 -0.12,-0.608 0.436,-0.886 a 0.636,0.636 0 0 1 0.627,0.042 c 0.088,0.195 0.152,0.296 0.203,0.4 m 2.155,3.861 -0.002,0.553 c -1.229,-0.044 -1.781,0.383 -2.098,1.332 -0.346,1.265 -2.415,0.726 -1.712,-0.98 0.537,-1.2 2.47,-1.325 3.812,-0.905"
       fill="#bbd43a"
       id="path10" />
    <path
       d="m 13.259,10.492 c -0.468,-0.024 -0.95,0.09 -1.286,0.335 -0.993,-0.625 -1.732,-0.47 -1.654,-0.584 0.425,-0.625 1.75,-1.154 2.95,-0.594 0,0 0.012,0.651 -0.01,0.843 m -1.951,0.776 a 7.471,7.471 0 0 0 -0.182,0.186 c -0.598,0.64 -0.656,1.563 -0.656,1.563 L 8.16,13.009 A 2.549,2.549 0 0 1 8.162,12.087 C 8.358,11.236 8.929,10.817 9.86,10.82 a 2.945,2.945 0 0 1 1.442,0.376 c 0.025,0.015 0.026,0.051 0.006,0.072 m 1.954,1.819 -1.946,-0.006 c 0.058,-1.036 0.709,-1.646 1.206,-1.796 0.174,-0.053 0.473,-0.1 0.746,-0.097 l -0.006,1.9 z"
       fill="#f05c2b"
       id="path12" />
  </g>
  <path
     style="opacity:1;fill:none;stroke:#ff0000;stroke-width:0.815497"
     d="M 0.99381927,23.648 10.743,13.8875 18.024,17.620904 29.20444,6.6637615"
     id="path300"
     sodipodi:nodetypes="cccc" />
</svg>
